PathFileType	4	(X/Y/Z)	W12_1_OpenSim.trc																																																																																																																						
DataRate	CameraRate	NumFrames	NumMarkers	Units	OrigDataRate	OrigDataStartFrame	OrigNumFrames																																																																																																																		
100	100	5	40	mm	100	1	3000																																																																																																																		
Frame#	Time	R.ASIS			R.PSIS			S2			L.PSIS			L.ASIS			R.TH1			R.TH2			R.TH3			R.MKnee			R.Knee			R.SH1			R.SH2			R.SH3			R.SH4			R.Ankle			R.MAnkle			R.Heel			R.MT5			R.MT1			L.TH1			L.TH2			L.TH3			L.TH4			L.MKnee			L.Knee			L.SH1			L.SH2			L.SH3			L.Ankle			L.MAnkle			L.Heel			L.MT5			L.MT1			R.Acr			L.Acr			C7			T10			Clav			Sternum			R.Back		
		X1	Y1	Z1	X2	Y2	Z2	X3	Y3	Z3	X4	Y4	Z4	X5	Y5	Z5	X6	Y6	Z6	X7	Y7	Z7	X8	Y8	Z8	X9	Y9	Z9	X10	Y10	Z10	X11	Y11	Z11	X12	Y12	Z12	X13	Y13	Z13	X14	Y14	Z14	X15	Y15	Z15	X16	Y16	Z16	X17	Y17	Z17	X18	Y18	Z18	X19	Y19	Z19	X20	Y20	Z20	X21	Y21	Z21	X22	Y22	Z22	X23	Y23	Z23	X24	Y24	Z24	X25	Y25	Z25	X26	Y26	Z26	X27	Y27	Z27	X28	Y28	Z28	X29	Y29	Z29	X30	Y30	Z30	X31	Y31	Z31	X32	Y32	Z32	X33	Y33	Z33	X34	Y34	Z34	X35	Y35	Z35	X36	Y36	Z36	X37	Y37	Z37	X38	Y38	Z38	X39	Y39	Z39	X40	Y40	Z40
1	0	1062.0594	1033.0522	-421.4982	872.3265	1035.1934	-518.6558	864.294	1032.4482	-564.0903	870.9523	1040.0671	-613.9044	1049.0302	1042.4362	-715.2328	1035.1593	695.4426	-407.3231	955.0136	692.8644	-393.3467	957.1736	583.3463	-404.09	977.2318	458.4913	-525.8896	967.9618	470.1703	-409.4915	862.0439	340.1007	-400.1705	788.1609	255.462	-413.5393	801.743	395.9806	-397.9771	727.6869	309.7196	-402.3904	625.2955	177.2312	-404.215	670.1509	165.9168	-493.6573	562.1834	196.0573	-466.5391	668.2875	63.6147	-373.6945	709.4114	43.1272	-463.0362	1126.832	768.0828	-726.6032	1154.6014	663.9944	-711.9846	1047.3425	741.1296	-738.0409	1079.0271	637.3878	-718.0761	1167.5193	515.6847	-585.2233	1171.8269	519.2653	-694.9128	1185.8272	383.9448	-710.9459	1104.2579	384.6404	-721.8838	1105.4722	275.0739	-714.199	1152.2245	80.1594	-708.0708	1179.7998	91.2073	-608.322	1085.9745	39.9173	-653.7721	1260.735	32.2436	-722.1816	1299.0635	44.6448	-622.0103	1022.837	1441.4036	-419.9821	958.4144	1412.0421	-740.6885	933.7349	1472.4659	-573.1143	904.2823	1145.41	-554.5604	1068.6455	1376.6604	-591.5326	1101.2233	1234.4545	-577.2041	869.4245	1378.8492	-469.8273
2	0.01	1060.9004	1034.0072	-423.0669	871.571	1036.2214	-520.4048	863.6932	1033.7954	-565.8883	870.5734	1041.7772	-615.6127	1049.0052	1044.3169	-716.964	1041.6327	697.2841	-408.5544	961.5181	692.4926	-394.9421	966.9881	583.0479	-405.1802	990.2181	459.5904	-526.6677	980.5979	471.056	-409.9529	873.1396	343.4465	-401.0739	796.7559	261.4098	-414.845	814.3699	401.0532	-398.3243	737.9902	316.9392	-403.1333	633.0927	190.2811	-405.8638	676.6253	175.3908	-495.1344	571.9802	213.3311	-468.3592	667.8049	74.9948	-374.9554	706.9774	49.3458	-463.3246	1124.1427	768.1738	-728.3998	1150.7341	663.7739	-713.4869	1044.567	742.191	-739.5328	1074.8555	638.2829	-719.1568	1161.9207	515.3102	-586.2221	1166.1038	518.7892	-696.0431	1178.0062	383.2838	-711.8704	1096.3519	385.1545	-722.3196	1096.0386	275.5906	-714.6023	1140.3328	80.2858	-708.1657	1168.0617	91.276	-608.4518	1074.2063	39.9418	-653.796	1248.8674	32.2225	-722.2756	1287.1273	44.5832	-622.0793	1021.3823	1442.7513	-421.2347	958.9947	1414.3904	-742.4208	933.0659	1474.2058	-574.7811	903.7109	1147.1217	-556.7002	1068.2997	1378.6033	-592.641	1100.3923	1236.2245	-578.623	868.1665	1380.319	-472.1019
3	0.02	1059.7272	1035.0281	-424.5794	870.7484	1037.3518	-522.1213	863.055	1035.2061	-567.6421	870.1423	1043.525	-617.2844	1048.8993	1046.1959	-718.6737	1047.9946	699.3253	-409.7416	967.9231	692.3174	-396.5428	976.6918	582.9867	-406.2815	1003.1191	460.9151	-527.4638	993.1454	472.1701	-410.4193	884.2526	346.9051	-402.0466	805.5189	267.3252	-416.1848	826.9524	406.1477	-398.7612	748.3831	324.0688	-403.9574	641.0929	202.9914	-407.5685	683.4774	184.7045	-496.6558	581.941	229.9215	-470.3151	668.083	86.1592	-376.2701	705.4766	55.6324	-463.6255	1121.3689	768.2761	-730.1278	1146.7535	663.5635	-714.9508	1041.6939	743.2781	-740.9957	1070.5839	639.1794	-720.2472	1156.193	514.9793	-587.2248	1160.2283	518.3301	-697.1749	1170.1278	382.6498	-712.7943	1088.3977	385.6559	-722.8487	1086.5963	276.0979	-715.0784	1128.4355	80.4025	-708.281	1156.3174	91.3489	-608.5986	1062.417	39.9888	-653.8306	1236.9874	32.2005	-722.3787	1275.1919	44.5243	-622.1547	1019.8824	1444.111	-422.441	959.5725	1416.7583	-744.1158	932.3814	1475.9879	-576.4143	903.099	1148.8835	-558.8229	1067.9367	1380.5558	-593.687	1099.5311	1238.0039	-579.9807	866.8703	1381.8362	-474.3594
4	0.03	1058.5238	1036.1885	-425.9994	869.8068	1038.6777	-523.7834	862.3485	1036.7401	-569.3214	869.6203	1045.3481	-618.8954	1048.6505	1048.0714	-720.3417	1054.1426	701.7299	-410.8477	974.1387	692.4996	-398.1429	986.1879	583.3545	-407.3939	1015.8588	462.648	-528.2868	1005.5183	473.702	-410.8927	895.3973	350.5676	-403.1223	814.583	273.1724	-417.5694	839.4354	411.2744	-399.3693	758.9287	331.0175	-404.9284	649.4546	215.0097	-409.3847	691.0076	193.6801	-498.2579	592.1519	245.1744	-472.5139	669.7852	96.8738	-377.6646	705.7326	62.007	-463.9539	1118.442	768.3972	-731.7347	1142.5685	663.3703	-716.3501	1038.6434	744.4111	-742.4128	1066.1265	640.0833	-721.3583	1150.2189	514.7147	-588.2391	1154.0758	517.9021	-698.308	1162.1279	382.064	-713.7131	1080.3427	386.1343	-723.5353	1077.1276	276.5883	-715.6771	1116.5236	80.5066	-708.4307	1144.5599	91.4317	-608.7752	1050.5967	40.0694	-653.885	1225.0837	32.1788	-722.4966	1263.257	44.4728	-622.2426	1018.2988	1445.4946	-423.563	960.1404	1419.1645	-745.7391	931.6663	1477.844	-577.9832	902.4112	1150.7327	-560.9141	1067.5382	1382.5292	-594.6194	1098.6193	1239.8059	-581.2252	865.5068	1383.4363	-476.5811
5	0.04	1057.2719	1037.5647	-427.3197	868.7207	1040.2705	-525.3844	861.5543	1038.447	-570.9159	868.9866	1047.2794	-620.4391	1048.2268	1049.9398	-721.9505	1059.991	704.6027	-411.845	980.0953	693.1417	-399.72	995.4013	584.2738	-408.4992	1028.3772	464.906	-529.1271	1017.6379	475.778	-411.3705	906.5756	354.4868	-404.2983	824.0294	278.9069	-418.9766	851.7521	416.4227	-400.2135	769.6517	337.6915	-406.0875	658.2759	225.9881	-411.3547	699.3961	202.1156	-499.961	602.5914	258.5181	-475.0005	673.4167	106.8878	-379.1272	708.3727	68.4179	-464.3333	1115.3189	768.5376	-733.1912	1138.1217	663.1976	-717.678	1035.3651	745.6027	-743.7812	1061.4216	641.0052	-722.5007	1143.8987	514.5139	-589.2709	1147.5604	517.5124	-699.4387	1153.936	381.5394	-714.6219	1072.1248	386.5849	-724.3955	1067.5967	277.0582	-716.4106	1104.5868	80.6004	-708.6181	1132.7813	91.5306	-608.9876	1038.7499	40.1781	-653.9629	1213.149	32.1595	-722.6299	1251.3173	44.4353	-622.347	1016.6027	1446.9164	-424.5744	960.685	1421.6248	-747.2624	930.9068	1479.7905	-579.4631	901.6194	1152.6854	-562.964	1067.0818	1384.5332	-595.4075	1097.6443	1241.6456	-582.3209	864.0581	1385.1368	-478.7498
